<svg xmlns="http://www.w3.org/2000/svg" width="1024" height="1024"><path d="M431.877 219.886q2.595 0 5.19.016l2.753.005c2.914.005 5.828.018 8.742.03q2.957.008 5.913.014 7.262.017 14.525.049c3.523 7.407 6.193 15.053 8.824 22.812l1.391 4.067q1.476 4.317 2.946 8.636c2.32 6.82 4.653 13.637 6.985 20.454l2.353 6.886a7169 7169 0 0 0 13.813 39.957c4.742 13.62 9.416 27.255 13.93 40.952 4.397 13.283 9.042 26.48 13.67 39.685l.952 2.716 1.764 5.025A906 906 0 0 1 541 427c2.182-2.772 3.9-5.54 5.496-8.684l1.427-2.782 1.514-2.972a583 583 0 0 1 14.817-26.997l1.445-2.487 1.276-2.175c1.16-2.025 1.16-2.025 2.025-4.903a198 198 0 0 1 3.125-5.063c4.18-6.668 8.089-13.484 12-20.312C599.577 323.728 615.692 297.065 634 272l1.204-1.664c5.136-7.082 10.608-13.822 16.32-20.441 1.37-1.602 2.725-3.217 4.015-4.883C663.52 234.756 676.235 225.679 689 223c7.198-.554 12.273 1.182 18.187 5.125 13.351 12.193 14.05 34.856 15 51.562l.13 2.27c3.272 59.541-3.37 120.623-9.719 179.75-.605 5.773-.838 11.487-.598 17.293l5 1v1c.597-.01 1.194-.02 1.81-.032 10.573-.16 21.097-.218 31.627.844l2.27.213c6.375.72 12.908 1.945 17.23 7.037 3.862 5.5 3.651 10.33 3.063 16.938-2.176 5.3-5.278 7.035-10.315 9.184-5.003 1.52-9.98 1.186-15.158.988l-3.526-.085c-3.689-.092-7.376-.214-11.064-.337q-3.768-.102-7.537-.2c-6.134-.16-12.267-.346-18.4-.55l-.069 1.815c-.485 12.515-1.154 24.986-2.175 37.468-11.723 102.89-11.723 102.89 15.056 199.53 6.68 6.679 13.642 9.154 22.735 11.035 4.696 1.567 7.115 4.057 9.75 8.183.808 2.263.97 4.069.953 6.469l.016 2.281c-.436 3.64-1.76 5.713-4.329 8.281-9.113 6.011-19.244 6.14-29.785 4.247-15.709-3.82-28.282-11.64-37.152-25.309l-1.898-2.879c-36.363-59.002-19.273-155.548-14.017-221.525.624-7.877 1.12-15.687.915-23.596-27.604 5.122-54.862 11.593-81.66 20.004C582 542 582 542 580 542l.788 2.135a11109 11109 0 0 1 4.563 12.399c3.162 8.59 6.272 17.195 9.32 25.825l1.866 5.26q1.373 3.87 2.729 7.743c5.288 17.37 5.288 17.37 17.816 29.423 10.454 4.352 21.749 4.794 32.918 5.215v12c-38.18.676-76.354 1.109-114.54 1.123q-4.264.003-8.529.01-6.724.008-13.448.001-2.49 0-4.983.002-3.401.003-6.802-.007l-3.867-.002C495 643 495 643 494 642a110 110 0 0 1-.063-5.563l.028-3.066L494 631c2.94-1.47 5.726-1.236 9-1.375 7.363-.412 14.651-.93 20.562-5.688 3.254-4.384 3.09-8.674 2.438-13.937-1.564-6.271-3.846-12.35-6-18.438a2175 2175 0 0 1-2.568-7.409 605 605 0 0 0-1.602-4.58c-1.043-2.988-1.83-5.385-1.83-8.573-3.44 2.294-4 3.632-5.68 7.336l-1.544 3.37-1.651 3.669q-.87 1.91-1.743 3.818-1.809 3.96-3.61 7.923c-2.136 4.693-4.326 9.361-6.515 14.03-13.414 28.66-25.977 57.708-38.565 86.738l-3.509 8.082a2575 2575 0 0 0-4.222 9.78l-1.863 4.316-.826 1.94c-2.86 6.6-6.399 13.019-13.085 16.377-6.098 1.731-12.728 1.455-18.687-.567-3.976-2.882-7.987-5.997-9.5-10.812-1.01-7.795 1.843-14.95 5-22l2-1c.771-1.803.771-1.803 1.379-3.988 1.543-4.896 3.48-9.524 5.562-14.211l1.117-2.542q1.747-3.975 3.504-7.947 1.762-3.987 3.516-7.978 1.086-2.472 2.18-4.939c1.797-4.083 3.38-8.141 4.742-12.395l1-2c4.689-9.896 9.201-19.864 13.607-29.889q1.436-3.264 2.875-6.527A2356 2356 0 0 0 461 585q-4.243 1.625-8.485 3.252-3.59 1.378-7.18 2.752c-5.723 2.195-11.423 4.421-17.073 6.797-7.366 3.076-13.725 5.561-21.575 3.074-4.707-2.068-6.81-5.037-9-9.625-1.174-5.55-.866-10.182 1.967-15.15 6.76-8.933 20.385-13.021 30.592-16.942a620 620 0 0 0 6.757-2.662c6.873-2.74 13.755-5.428 20.715-7.939 16.823-5.248 16.823-5.248 29.05-16.821 1.387-3.186 2.289-6.39 3.232-9.736a85 85 0 0 1 2.187-3.691c2.012-3.037 2.012-3.037 1.801-5.75l-.676-2.122c-1.068-3.57-1.68-6.648-2.312-10.437H366l-2 10a236 236 0 0 1-2.031 7.148l-.582 1.947q-.618 2.067-1.24 4.132c-1.13 3.75-2.24 7.506-3.35 11.261l-.699 2.362c-5.599 18.98-10.971 38.049-15.66 57.275l-.726 2.94C336.616 609.63 336.616 609.63 339 622c4.203 5.043 10.799 5.978 17 7 3.605.327 7.213.522 10.831.622 1.727.06 3.45.21 5.169.378 1.217 2.434 1.32 4.418 1.562 7.125l.254 2.758L374 642c-2.718.906-4.281 1.126-7.072 1.127l-2.506.009-2.74-.007-2.893.006q-4.746.004-9.492-.002-3.298 0-6.596.003-6.92.002-13.84-.006-8.859-.006-17.718.004-6.814.005-13.63 0-3.265 0-6.53.002-4.575.003-9.148-.007l-2.715.007c-4.813-.017-9.373-.327-14.12-1.136l1-12 4.242-.297c15.831-.925 15.831-.925 29.633-8.016 5.197-6.573 7.563-13.446 10-21.375l1.037-3.317q1.048-3.363 2.083-6.729c.942-3.062 1.898-6.12 2.857-9.176q.826-2.67 1.648-5.34l.773-2.468c1.193-3.94 1.79-7.14 1.727-11.282l2-2c.855-2.146.855-2.146 1.581-4.685l.905-2.981.971-3.268 1.03-3.408q1.67-5.546 3.325-11.096l2.291-7.618q1.746-5.8 3.486-11.602 3.671-12.239 7.427-24.451l2.695-8.803a2430 2430 0 0 1 1.703-5.527q1.178-3.815 2.34-7.635l.698-2.234c1.106-3.66 1.816-6.862 1.548-10.692l2-1c.874-2.414 1.628-4.79 2.336-7.254l.7-2.355q.766-2.587 1.525-5.176c1.436-4.898 2.901-9.786 4.365-14.676l.969-3.242c3.903-13.02 7.967-25.99 12.033-38.96l1.913-6.107q2.605-8.317 5.211-16.633 4.567-14.565 9.116-29.136l.64-2.051 2.55-8.161a67569 67569 0 0 1 21.648-69.214c10.016-32.006 10.016-32.006 14.871-32.149m250.373 47.551c-34.699 35.086-57.57 84.468-79.863 127.977a878 878 0 0 1-7.27 13.88c-6.098 11.408-11.664 23.069-17.247 34.733a2265 2265 0 0 1-7.007 14.47c-6.86 14.064-13.639 28.136-19.953 42.456-2.242 5.044-4.582 10.043-6.91 15.047 3.372 1.686 6.81-.203 10.262-1.238l2.497-.73c2.645-.775 5.287-1.56 7.928-2.345l5.288-1.552q4.889-1.436 9.774-2.882c30.599-9.035 61.78-16.035 93.251-21.253 2.916-25.136 5.408-50.288 7.562-75.5l.228-2.652c4.112-48.024 6.796-95.617 6.21-143.848-1.974 0-3.43 2.163-4.75 3.437M425 296l-.645 2.23c-6.281 21.712-12.651 43.397-19.052 65.075l-5.884 19.936-1.453 4.924a43400 43400 0 0 0-13.311 45.208 19220 19220 0 0 1-4.43 15.045 13594 13594 0 0 0-3.106 10.554l-1.541 5.228q-1.155 3.915-2.305 7.831l-.7 2.363c-1.161 3.74-1.161 3.74-1.573 7.606q2.688.252 5.375.5l3.023.281c2.499.247 2.499.247 4.602.219l6.51.011q16.137.028 32.275.04 8.939.008 17.877.024 8.63.016 17.26.02 3.297.003 6.593.01 4.601.01 9.202.009l2.774.01c4.392.135 4.392.135 8.509-1.124a269 269 0 0 0-6.633-23.305l-1.059-3.207q-1.126-3.412-2.258-6.821a6821 6821 0 0 1-6.027-18.265l-.624-1.898a2108 2108 0 0 1-9.297-29.063l-1.182-3.78a5829 5829 0 0 1-5.612-18.073l-2.027-6.514-.922-3.019-.857-2.744-.737-2.39c-.696-2.115-.696-2.115-2.765-3.921v-1c-1.427-7.068-3.42-13.85-5.625-20.71l-1.053-3.304q-1.096-3.432-2.199-6.862a3838 3838 0 0 1-3.357-10.526l-2.141-6.684-1.01-3.182-.95-2.944c-.412-1.282-.412-1.282-.83-2.59-.83-2.434-.83-2.434-2.835-5.198"/><path fill="#1C1E1E" d="M710 472h1l1 7 5 1c-2 2-2 2-7 3z"/><path fill="#141414" d="M513 577h2l-1 3z"/><path fill="#1E1D1C" d="m708 516 4 1Z"/><path fill="#141616" d="m541 424 2 1-2 2z"/><path fill="#191819" d="m552 512 3 1Z"/><path fill="#2B2C2C" d="m440 481 3 1Z"/><path fill="#282928" d="m721 795 2 1Z"/><path fill="#2C2C2C" d="m369 628 2 1Z"/><path fill="#1F2222" d="m440 553 2 1Z"/><path fill="#1A191B" d="m473 501 2 1Z"/><path fill="#2C2E2C" d="m420 481 2 1Z"/><path fill="#141413" d="m427 310 2 1Z"/><path fill="#1B1B1C" d="m608 307 2 1Z"/><path fill="#252425" d="m675 226 2 1Z"/><path fill="#1E2021" d="m702 224 2 1Z"/><path fill="#242526" d="m680 224 2 1Z"/></svg>