<svg width="512" height="512" viewBox="0 0 108 108" xmlns="http://www.w3.org/2000/svg">\n  <path d="M 0,0 L 108,0 L 108,108 L 0,108 Z" fill="#0D1117"/>\n  <path d="M 18,54 L 90,54 M 54,18 L 54,90 M 28,28 L 80,80 M 80,28 L 28,80" stroke="#00F0FF" stroke-opacity="0.26666666666666666" stroke-width="1"/>\n  <path d="M 34,34 L 54,24 L 74,34 L 84,54 L 74,74 L 54,84 L 34,74 L 24,54 Z M 34,34 L 54,54 L 74,34 M 34,74 L 54,54 L 74,74" stroke="#00F0FF" stroke-width="2" stroke-linejoin="round"/>\n  <path d="M 34,30 L 38,34 L 34,38 L 30,34 Z M 74,30 L 78,34 L 74,38 L 70,34 Z M 34,70 L 38,74 L 34,78 L 30,74 Z M 74,70 L 78,74 L 74,78 L 70,74 Z M 54,20 L 58,24 L 54,28 L 50,24 Z M 54,80 L 58,84 L 54,88 L 50,84 Z M 24,50 L 28,54 L 24,58 L 20,54 Z M 84,50 L 88,54 L 84,58 L 80,54 Z" fill="#00F0FF"/>\n  <path d="M 54,42 L 66,54 L 54,66 L 42,54 Z" stroke="#00F0FF" stroke-width="4" stroke-linejoin="round"/>\n  <path d="M 54,51 L 57,54 L 54,57 L 51,54 Z" fill="#00F0FF"/>\n</svg>